PathFileType	4	(X/Y/Z)	C:\Users\Basilio\Documents\Thesis Gigler\squatting_fais\c3dfiles\058\SLS_back_pre4\markers_experimental.trc
DataRate	CameraRate	NumFrames	NumMarkers	Units	OrigDataRate	OrigDataStartFrame	OrigNumFrames
200.000000	200.000000	4	61	mm	200.000000	319	1279
Frame#	Time	FHD			LBHD			RBHD			C7			T10			CLAV			LSHO			LUUPA			LMUPA			LDUPA			LLEP			LMEP			LRAD			LUL			LRFIN			RSHO			RUPA1			RMUPA			RDUPA			RLEP			RMEP			RRAD			RUL			RUFIN			LASI			RASI			USACR			LSACR			RSACR			LTHI1			LTHI2			LTHI3			LTHI4			LLFC			LMFC			LTIB1			LTIB2			LTIB3			LTIB4			LLMAL			LMMAL			LHEE			LMT1			LMT2			LMT5			RTHI			RTHI2			RTHI3			RTHI4			RLFC			RMFC			RTIB1			RTIB2			RTIB3			RTIB4			RLMAL			RMMAL			RHEE			RMT1			RMT2			RMT5			
		X1	Y1	Z1	X2	Y2	Z2	X3	Y3	Z3	X4	Y4	Z4	X5	Y5	Z5	X6	Y6	Z6	X7	Y7	Z7	X8	Y8	Z8	X9	Y9	Z9	X10	Y10	Z10	X11	Y11	Z11	X12	Y12	Z12	X13	Y13	Z13	X14	Y14	Z14	X15	Y15	Z15	X16	Y16	Z16	X17	Y17	Z17	X18	Y18	Z18	X19	Y19	Z19	X20	Y20	Z20	X21	Y21	Z21	X22	Y22	Z22	X23	Y23	Z23	X24	Y24	Z24	X25	Y25	Z25	X26	Y26	Z26	X27	Y27	Z27	X28	Y28	Z28	X29	Y29	Z29	X30	Y30	Z30	X31	Y31	Z31	X32	Y32	Z32	X33	Y33	Z33	X34	Y34	Z34	X35	Y35	Z35	X36	Y36	Z36	X37	Y37	Z37	X38	Y38	Z38	X39	Y39	Z39	X40	Y40	Z40	X41	Y41	Z41	X42	Y42	Z42	X43	Y43	Z43	X44	Y44	Z44	X45	Y45	Z45	X46	Y46	Z46	X47	Y47	Z47	X48	Y48	Z48	X49	Y49	Z49	X50	Y50	Z50	X51	Y51	Z51	X52	Y52	Z52	X53	Y53	Z53	X54	Y54	Z54	X55	Y55	Z55	X56	Y56	Z56	X57	Y57	Z57	X58	Y58	Z58	X59	Y59	Z59	X60	Y60	Z60	X61	Y61	Z61	

320	1.595	-267.4429016113282	1799.644409179688	-612.2540893554689	-426.5340270996095	1764.15869140625	-688.4642944335939	-252.1388092041016	1806.345581054688	-753.9102783203126	-444.4804687500001	1592.162231445313	-706.0726928710939	-440.1991271972657	1286.26025390625	-703.6451416015626	-287.9171752929688	1555.272705078125	-688.3453979492189	-305.2106628417969	1611.787109375	-839.7729492187502	-144.0277557373047	1545.704956054688	-939.4707031250002	-122.2498474121094	1585.28173828125	-918.158630371094	-74.68144989013673	1550.681640625	-929.3048095703127	-1.16759991645813	1559.336303710938	-910.479431152344	3.17330813407898	1508.939208984375	-868.7798461914065	257.6830444335938	1592.840698242188	-800.1217041015627	262.1505737304688	1608.1181640625	-880.0272216796877	357.5361938476563	1624.447387695313	-798.8801269531252	-322.1720581054688	1606.743408203125	-537.4303588867189	-158.3069305419922	1534.146362304688	-436.846405029297	-139.6042938232422	1573.768432617188	-460.582000732422	-90.06835174560548	1548.353149414063	-439.6219177246095	-22.34115600585938	1546.09130859375	-452.4214782714845	-12.00259876251221	1489.867065429688	-506.382537841797	nan	nan	nan	240.4250488281251	1613.439575195313	-463.6588134765626	329.0088195800782	1643.232666015625	-531.4331665039064	-263.2812805175782	1093.510864257813	-842.793884277344	-259.5256652832032	1074.620727539063	-601.4117431640626	-453.6768493652345	1171.315551757813	-702.4024658203126	-460.1251220703126	1141.635620117188	-732.7774047851564	-454.8733825683595	1136.81591796875	-675.5227050781251	-279.2854003906251	829.0576782226565	-950.1198730468752	-236.638168334961	754.8173828125001	-958.2517700195315	-192.2042236328126	757.4891967773439	-936.170349121094	-258.0573425292969	698.6995849609376	-961.1444091796877	-266.4160766601563	619.1211547851564	-959.3278808593752	-241.9021301269532	584.1605224609376	-827.8310546875002	-365.5973510742188	543.5344848632814	-917.701843261719	-408.1790161132814	607.7646484375001	-955.8245239257815	-414.7106018066407	567.8973388671876	-942.269714355469	-490.5747070312501	560.8707885742189	-907.4426269531252	-676.1278686523439	640.7470092773439	-885.0696411132815	-662.4850463867189	586.0764160156251	-803.5847778320315	-668.1350097656251	687.3087158203126	-809.241149902344	-790.4237060546877	502.8957519531251	-837.818054199219	-805.5385742187502	505.837615966797	-874.6711425781252	-796.3271484375002	572.5938110351564	-919.7362060546877	-368.8666381835938	862.5064697265627	-551.8457031250001	-332.8162231445313	806.8764648437502	-553.8057250976564	-299.4526062011719	806.855895996094	-554.2409667968751	-359.2601013183594	730.9367065429689	-578.3744506835939	-350.4082641601563	550.1696166992189	-611.4437255859376	-314.9812927246094	551.1682739257814	-743.9030151367189	-301.2573852539063	354.3381347656251	-715.4595336914064	-339.5050964355469	270.4974670410157	-657.9318237304689	-303.7285156250001	267.1768493652344	-690.0297851562501	-313.2985229492188	227.1493682861329	-729.9139404296876	-375.0287475585938	115.9354019165039	-698.3564453125001	-343.2250976562501	144.1208953857422	-783.456970214844	-439.1975097656251	101.4996643066407	-763.3143920898439	-229.3195953369141	60.91415786743165	-775.5297851562502	-223.338607788086	59.43015670776369	-723.4910888671876	-273.2874755859376	26.47776985168458	-672.2921142578126	
321	1.6	-267.4067077636719	1799.770141601563	-612.2967529296876	-426.5305480957032	1764.250854492188	-688.5148315429689	-252.0821228027344	1806.51025390625	-753.8817138671876	-444.3990478515626	1592.361083984375	-706.1163330078126	-440.3753051757814	1286.480590820313	-703.6649780273439	-287.7960815429688	1555.661010742188	-688.4630126953126	-305.1240844726563	1611.87890625	-839.9078369140627	-143.8489990234375	1545.801879882813	-939.5904541015627	-122.1377868652344	1585.298095703125	-918.213562011719	-74.56997680664064	1550.694702148438	-929.3154296875002	-1.201231122016907	1559.281860351563	-910.4516601562502	3.133093118667603	1508.958618164063	-868.7593383789065	257.6843261718751	1592.66943359375	-800.1089477539065	262.2079772949219	1607.888916015625	-879.910827636719	357.6097412109376	1624.3037109375	-798.7623291015627	-322.1322326660157	1606.800659179688	-537.5128173828126	-158.4211578369141	1533.87060546875	-436.8388977050782	-139.5386352539063	1573.727905273438	-460.4732055664064	-90.05941009521486	1548.29345703125	-439.5849609375001	-22.29985046386719	1545.935180664063	-452.3260803222657	-11.97602272033692	1489.732177734375	-506.2843627929689	nan	nan	nan	240.2838897705079	1613.1708984375	-463.8124084472657	328.8138427734376	1643.121215820313	-531.4650878906251	-263.6010437011719	1093.822509765625	-842.4951782226565	-259.8700866699219	1074.717041015625	-601.1273803710939	-452.8914489746095	1171.31494140625	-702.5948486328126	-460.4397277832032	1141.714477539063	-732.5758056640626	-455.1141052246095	1136.86279296875	-675.3204345703126	-279.6770324707032	829.234802246094	-949.986022949219	-237.0009002685547	755.0693969726564	-958.126403808594	-192.4463500976563	757.6428222656251	-936.2608032226565	-258.3695983886719	698.8752441406251	-961.1118164062502	-266.6529541015626	619.3448486328126	-959.3452758789065	-241.7486877441407	584.2929687500001	-827.9412841796877	-365.6645812988282	543.3896484375001	-917.7873535156252	-408.3864135742189	607.7537231445314	-955.884216308594	-414.7840576171876	567.8718261718751	-942.432556152344	-490.8914184570314	560.6390991210939	-907.7130126953127	-676.5018310546876	640.1640625000001	-885.2319946289065	-662.9797973632814	585.6486206054689	-803.8086547851565	-668.4442138671876	686.5260009765626	-809.2152099609377	-791.0513305664065	502.126678466797	-838.1409301757815	-806.4060668945315	505.0405883789064	-874.5487060546877	-796.5443115234377	572.1567993164064	-919.9224243164065	-369.2701416015626	862.528503417969	-551.8897705078126	-333.3515014648438	807.1623535156252	-553.7955932617189	-300.0266723632813	806.6923828125002	-553.9684448242189	-359.5459289550782	731.0305175781251	-578.4470825195314	-350.6670532226563	550.2485351562501	-611.4003906250001	-315.0766601562501	551.0916137695314	-743.7871704101564	-301.3734436035157	354.3535156250001	-715.2918090820314	-339.8288879394532	270.6480407714844	-657.8103027343751	-303.7342834472657	267.2348022460938	-689.9044799804689	-313.3359680175782	227.345687866211	-729.7463378906251	-375.0638427734376	115.9279708862305	-698.3118286132814	-343.3407897949219	144.2225036621094	-783.4349365234377	-439.190155029297	101.5715942382813	-763.2836914062501	-228.8630828857422	60.29146957397462	-775.5118408203127	-224.5221252441407	58.04375457763673	-723.0313110351564	-273.2875671386719	26.4761085510254	-672.2919311523439	
322	1.605	-267.4129943847657	1800.0615234375	-612.0869750976564	-426.5100708007814	1764.23095703125	-688.5329589843751	-252.0999145507813	1806.644897460938	-753.8903808593751	-444.3348693847657	1592.522216796875	-706.2320556640626	-440.5449829101564	1286.807983398438	-703.6333007812501	-287.7467346191407	1555.6259765625	-688.5465087890626	-305.1130065917969	1611.966918945313	-839.9173583984377	-143.8744354248047	1545.906982421875	-939.6748657226565	-121.9823989868164	1585.435791015625	-918.3098754882815	-74.61488342285158	1550.67041015625	-929.3459472656252	-1.133713841438294	1559.209716796875	-910.4799804687502	3.21431064605713	1508.774169921875	-868.8197021484377	257.6758422851563	1592.50732421875	-800.110290527344	262.3219909667969	1607.661376953125	-879.895202636719	357.8251953125001	1624.17919921875	-798.6029052734377	-322.1267089843751	1606.8125	-537.5847778320314	-158.4720458984375	1533.656127929688	-436.8679504394532	-139.5787048339844	1573.675170898438	-460.4290466308595	-90.08213043212892	1548.100341796875	-439.4888000488282	-22.23216629028321	1545.84521484375	-452.2412719726564	-12.06576919555664	1489.604614257813	-506.133514404297	nan	nan	nan	240.1934204101563	1612.963012695313	-463.865447998047	328.7979125976563	1642.935913085938	-531.5994873046876	-263.7564086914063	1094.20458984375	-842.195007324219	-260.3830261230469	1074.766967773438	-600.7967529296876	-453.1298217773439	1171.425537109375	-702.3460083007814	-460.7618713378907	1141.757446289063	-732.4481201171876	-455.4532165527345	1136.975708007813	-675.0214233398439	-279.9443054199219	829.4116821289065	-949.8596801757815	-237.3954772949219	755.2865600585939	-958.0241699218752	-192.7164764404297	757.8536987304689	-936.322937011719	-258.6528625488282	699.1592407226564	-961.011901855469	-266.8276977539063	619.6146240234376	-959.3717041015627	-241.761459350586	584.3918457031251	-827.9680175781252	-365.9007873535157	543.4785156250001	-917.9431762695315	-408.7766418457032	607.8262329101564	-955.8813476562502	-414.9695739746095	567.8987426757814	-942.5222167968752	-490.749237060547	559.8664550781251	-907.8732910156252	-676.7032470703126	639.6092529296876	-885.8399047851565	-663.2289428710939	584.1903686523439	-804.016296386719	-668.7937622070314	685.8594970703126	-809.0210571289065	-791.4807739257815	501.7776794433595	-838.4445800781252	-806.3572387695315	504.5807495117189	-875.1878051757815	-796.8553466796877	571.6212158203126	-920.195495605469	-369.7517395019532	862.645690917969	-551.9531860351564	-333.9717407226563	807.2285766601565	-553.7796630859376	-300.5805664062501	806.6888427734377	-553.7751464843751	-360.0259094238282	730.9844360351564	-578.4663085937501	-351.1802062988282	550.4299926757814	-611.2548217773439	-315.1974487304688	551.1564941406251	-743.6195068359376	-301.5842895507813	354.3468933105469	-715.1018676757814	-339.9221191406251	270.7239074707032	-657.6999511718751	-303.8711242675782	267.2373046875001	-689.7297363281251	-313.5111694335938	227.2857971191407	-729.5499877929689	-375.0958251953126	115.9545135498047	-698.2423095703126	-343.2523803710938	144.290267944336	-783.377868652344	-439.2275695800782	101.5431823730469	-763.2562866210939	-229.0471801757813	60.72772598266603	-775.3872680664065	-224.5220031738282	58.055477142334	-723.0094604492189	-273.2586059570313	26.50523948669434	-672.2880249023439	
323	1.61	-267.3282775878907	1800.217529296875	-612.0934448242189	-426.5154724121095	1764.231567382813	-688.5959472656251	-251.9002227783204	1806.772827148438	-753.9010009765626	-444.227264404297	1592.720825195313	-706.3178100585939	-440.6823120117189	1287.147827148438	-703.5600585937501	-287.3645324707032	1555.334838867188	-688.5475463867189	-304.9606323242188	1612.075927734375	-840.007019042969	-143.8225555419922	1546.02978515625	-939.7539672851565	-122.0100021362305	1585.584594726563	-918.287780761719	-74.4384002685547	1550.839721679688	-929.5054931640627	-1.046300172805786	1559.178833007813	-910.521179199219	3.190995931625367	1508.828247070313	-868.7769165039065	257.7112731933594	1592.379028320313	-800.1616821289065	262.4085998535157	1607.416748046875	-879.8674316406252	357.5254516601563	1623.741455078125	-798.790710449219	-322.0547180175782	1606.857421875	-537.5437011718751	-158.4306640625	1533.576538085938	-436.9082336425782	-139.5896453857422	1573.571899414063	-460.3542785644532	-90.38417816162111	1547.764282226563	-439.4883728027345	-22.28345108032227	1545.666259765625	-452.1573181152345	-12.17302608489991	1489.42919921875	-506.0242004394532	nan	nan	nan	240.1192321777344	1612.6083984375	-463.792449951172	328.5590515136719	1642.760864257813	-531.6021118164064	-263.9905090332032	1094.490112304688	-841.9844360351565	-260.8507385253907	1074.990112304688	-600.4063110351564	-453.4429016113282	1171.574584960938	-702.0499877929689	-461.0796203613282	1141.835327148438	-732.2626342773439	-455.7761535644532	1137.113403320313	-674.6464843750001	-280.2985839843751	829.5592041015627	-949.6892089843752	-237.6814575195313	755.4578857421876	-957.953063964844	-192.9153289794922	758.0989990234376	-936.272644042969	-258.9225769042969	699.3864746093751	-960.9479980468752	-266.9381408691407	619.8497924804689	-959.4411621093752	-241.8625488281251	584.5669555664064	-828.0451660156252	-365.9417724609376	543.3878173828126	-918.074645996094	-409.036102294922	607.8258666992189	-955.9353027343752	-415.1199645996095	567.7735595703126	-942.690856933594	-490.8997802734376	559.6381225585939	-908.108093261719	-676.9463500976564	638.9004516601564	-885.9326171875002	-663.6065063476564	583.8564453125001	-804.250671386719	-668.3671264648439	685.1151123046876	-809.8822021484377	-791.8499755859377	501.2779235839845	-838.6953735351565	-806.1062622070315	504.448699951172	-876.1118774414065	-797.248229980469	571.0151977539064	-920.621765136719	-370.3342590332032	862.6259765625002	-552.0067749023439	-334.2061157226563	807.3801269531252	-553.8284912109376	-301.2964782714844	806.8247070312502	-553.5089721679689	-360.6677246093751	731.1517333984376	-578.4991455078126	-351.6254272460938	550.5877685546876	-611.1083374023439	-315.3597106933594	551.2019042968751	-743.4661254882814	-301.7019653320313	354.4070434570313	-714.9393310546876	-339.9750671386719	270.7596435546876	-657.5590209960939	-304.0420227050782	267.3258056640626	-689.4931030273439	-313.5219421386719	227.4479370117188	-729.4442138671876	-375.1228332519532	115.9644622802735	-698.1319580078126	-343.2991333007813	144.3300323486328	-783.294128417969	-439.2745361328126	101.7112045288086	-763.1668090820314	-229.0106964111329	60.79808425903322	-775.3125000000002	-224.5389709472657	58.09621810913087	-722.9680786132814	-273.2600402832032	26.43393325805665	-672.2491455078126	
